<?xml version="1.0" encoding="UTF-8"?>
<svg id="Layer_1" data-name="Layer 1" xmlns="http://www.w3.org/2000/svg" width="195.06" height="734.63" viewBox="0 0 195.06 734.63">
  <defs>
    <style>
      :root {
        --soda-liquid: #5d2b10;
        --label-bg: #f7af1a;
        --logo-fill: #ffffff;
      }

      .cls-1 {
        fill: #333;
        filter: blur(3px);
      }

      .cls-2 {
        fill: #a81e2200;
      }

      .highlights {
        fill: #fff;
        filter: blur(3px);
        z-index: 2;
        opacity: .42;
      }

      .lowlights {
        opacity: .31;
        filter: blur(3px);
      }

      .sodaColor {
        fill: var(--soda-liquid);
        filter: blur(3px);
      }

      .label {
        fill: var(--label-bg);
      }
      
      .logo-slot svg {
  width: 60%;
  x: 20%;
  y: 25%;
  
  path {
    fill: var(--logo-fill);
  }
}
    </style>
  </defs>
  <path class="outline" d="M89.6,727.55s-85.41,1.19-84.76-21.93c-8.11-21.95-3.48-279.16-3.88-309.33-1.35-99.83,33.2-78.55,37.07-144.05,0,0,24.63-202,24.63-202-9.67-4.2-.3-22.59-1.97-29.48-.21-.88-.4-1.42-1.33-1.71-1.41-.44-2.24-1.92-1.95-3.37.9-4.47,2.89-12.48,10.67-13.44,0,0,35.91-5.04,62.6,0,0,0,6.57,2.47,6.57,16.09,0,0-4.95-.84-2.36,5.24,0,0,8.34,22.07-2.34,27.11,3.49,13.8,20.3,160.08,26.78,217.16,1.46,12.81,12.93,33.46,19.59,44.5,9.22,15.27,14.59,35.53,15.75,79.51-1.08,20.27,2.26,291.44-1.3,303.41,3.35,31.7-44.08,32.59-103.77,32.29Z" />

  <g class="sodaColor">
    <path d="M9.45,651.52s91.85,17.78,176.59,0c-3.67,46.56,18.22,73.92-92.3,71.83,0,0-82.52,3.13-84.3-33.32,0,0-1.19-31.41,0-38.52Z" />
    <path d="M8.27,385.74s91.85,10.67,177.19,0c0,0,9.37-34.71-13.34-69.07-2.06-3.12-3.99-6.33-5.67-9.68-5.3-10.61-16.08-33.45-19.51-50.44,0,0-14.81-194.37-18.37-208,0,0,12.25-7.43,1.02-28.76,0,0-53.04,2.07-65.78-.3,0,0-6,26.84,4.02,28.76l-23.11,222.52s-7.11,27.7-16.89,37.93c0,0-25.78,26.81-19.56,77.04Z" />
  </g>

  <path class="label" d="M7.26,382.69s82.19,15.43,178.19,3.05l.59,265.78s-84.27,18.22-176.71,0l-2.07-268.82Z" />

  <g class="lowlights">
    <path d="M85.44,270.46s-24-.89-35.56,24c0,0-29.69,48.35-2.06,60.53.66.29,1.34.56,2.06.8,31.11,10.67,43.9-19.56,43.9-19.56,0,0,8.54-7.11,17.87.44,0,0,11.11,27.56,36,18.22,0,0,18.22-26.22-4-51.56,0,0-22.22-33.78-58.22-32.89Z" />
    <path d="M62.33,162.46s53.78,4,72,0c0,0-37.33-9.33-72,0Z" />
    <path d="M30.09,706.26c-10.37-7.13,20.76-11.01,28.61-12.1,12.84-1.47,26.45-2.17,38.72-1.63,6.89.65,59.45,1.83,68.85,11.77,1.99,3.5-4.21,4.5-6.68,5.06-23.21,4.66-75.57,11-121.26.33-3.51-.98-6.36-2.16-8.13-3.35l-.12-.08Z" />
  </g>

  <g class="logoSlot"></g>

  <g class="highlights">
    <path d="M72,46.33h15.78c7.07,3.66.16,23.93,5.56,24.89l-5.78,232s-14,9.11-32,9.11c1.1-52.98,12.27-173.13,15.63-236.74-6.45-5.06-2.87-19.34.81-29.26Z" />
    <path d="M140.81,312.33l-18.67-7.85-8-231.11s3.11-17.19,0-27.04h11.88s6.67,27.46,0,29.24l14.79,236.76Z" />
    <path d="M84.81,729.82s-7.56-32.44-4.89-45.78c2.35-44.14-.74-284.62,2.16-323.56l-40.38-14.22s-25.78,29.33-16.89,69.33l1.78,266.67s-4.44,41.33,8.89,49.78c0,0,25.78,7.11,49.33-2.22Z" />
    <path d="M133.26,731.15s8.44-34.22,6.67-47.11l-1.33-269.33s.22-45.78-4.22-54l22-12.22s19.33,10.44,14.44,64.44l.79,268s1.65,38.44-8.13,50.22c0,0-16.44,3.56-30.22,0Z" />
  </g>

  <path class="cls-1" d="M59.36,16.24s0-11.48,12.44-12.15c0,0,42.92-5.57,59.02,1.93.97.45,1.76,1.23,2.23,2.19.86,1.75,2.03,4.83,1.44,7.77,0,0-14.99,2.93-75.14.26Z" />
</svg>